<?xml version="1.0" standalone="no"?>
<!DOCTYPE svg PUBLIC "-//W3C//DTD SVG 20010904//EN"
 "http://www.w3.org/TR/2001/REC-SVG-20010904/DTD/svg10.dtd">
<svg version="1.0" xmlns="http://www.w3.org/2000/svg"
 width="320.000000pt" height="320.000000pt" viewBox="0 0 320.000000 320.000000"
 preserveAspectRatio="xMidYMid meet">
<metadata>
Created by potrace 1.14, written by Peter Selinger 2001-2017
</metadata>
<g transform="translate(0.000000,320.000000) scale(0.100000,-0.100000)"
fill="#000000" stroke="none">
<path d="M1450 3190 c0 -5 7 -7 15 -4 8 4 15 8 15 10 0 2 -7 4 -15 4 -8 0 -15
-4 -15 -10z"/>
<path d="M2409 3180 c-26 -28 -96 -36 -120 -14 -18 16 -21 16 -55 -2 -37 -20
-38 -21 -48 -65 -4 -17 -18 -32 -38 -42 -18 -9 -30 -17 -26 -17 4 0 0 -9 -9
-19 -16 -19 -48 -18 -36 1 4 7 -4 8 -23 4 -73 -18 -94 -19 -94 -2 0 9 -3 15
-7 15 -21 -3 -33 2 -33 16 0 22 -38 18 -45 -4 -3 -11 -12 -22 -20 -24 -10 -4
-12 2 -10 24 3 23 0 29 -15 29 -11 0 -20 5 -20 10 0 16 -49 35 -61 23 -19 -19
2 -44 34 -41 38 4 46 -15 12 -30 -30 -14 -65 -1 -65 23 0 7 -5 17 -12 21 -8 5
-9 0 -6 -14 4 -12 2 -25 -3 -28 -5 -3 -9 -1 -9 3 0 5 -14 17 -32 27 -31 19
-31 19 -25 -3 4 -16 1 -21 -13 -21 -22 0 -39 22 -22 28 14 4 6 22 -9 22 -6 0
-7 -4 -4 -10 3 -5 -3 -10 -14 -10 -10 0 -22 -6 -24 -12 -4 -10 -6 -10 -6 0 -1
18 -21 15 -21 -3 0 -28 -100 -49 -115 -25 -3 6 -19 10 -34 10 -16 0 -34 7 -41
15 -12 15 -5 55 11 55 14 0 11 27 -5 33 -15 6 -36 -11 -36 -28 0 -7 -9 -20
-20 -30 -20 -18 -21 -18 -43 3 l-23 21 1 -27 c0 -21 8 -31 39 -45 l39 -19 -59
-34 c-33 -18 -65 -34 -71 -34 -7 0 -27 -16 -44 -35 l-32 -35 -33 25 c-18 14
-44 25 -58 25 -16 0 -27 7 -31 21 -5 14 -14 19 -28 17 -19 -3 -22 -9 -22 -54
0 -28 -6 -58 -13 -66 -8 -10 -10 -26 -6 -43 4 -15 3 -30 -2 -34 -5 -3 -17 -22
-26 -43 -12 -26 -25 -38 -47 -43 -22 -5 -31 -13 -31 -26 0 -10 7 -19 15 -19
18 0 9 -28 -17 -52 -11 -9 -14 -18 -8 -20 7 -2 4 -24 -10 -62 -21 -62 -44
-216 -36 -244 2 -10 7 -58 11 -108 6 -97 -6 -154 -30 -134 -9 7 -26 -2 -59
-31 -46 -41 -49 -42 -114 -40 -73 2 -111 9 -129 23 -14 11 -28 -31 -20 -61 2
-10 0 -25 -5 -34 -6 -11 -3 -25 9 -43 17 -26 17 -27 -15 -56 -33 -28 -52 -30
-52 -3 0 8 -14 22 -31 30 -24 13 -34 14 -45 4 -8 -6 -33 -13 -57 -15 -52 -5
-67 -10 -67 -25 0 -6 7 -8 16 -5 8 3 12 2 9 -4 -3 -6 -1 -10 4 -10 6 0 11 -3
11 -7 0 -5 -31 -9 -69 -10 -50 -1 -73 3 -82 13 -18 22 -29 16 -29 -17 0 -24 3
-29 13 -21 12 10 66 12 68 2 4 -14 9 -59 11 -93 2 -28 5 -34 13 -25 5 7 19 14
30 16 64 11 81 18 104 45 14 17 26 40 26 51 0 15 7 21 21 21 12 1 29 7 38 14
13 11 20 9 46 -18 17 -17 29 -35 26 -40 -3 -5 3 -11 13 -14 12 -3 28 6 45 25
31 36 62 34 58 -2 -1 -14 -9 -30 -17 -36 -8 -6 -15 -16 -15 -21 0 -10 -32 -43
-42 -43 -3 0 -8 13 -11 29 -10 48 -67 47 -59 -1 2 -10 -2 -18 -7 -18 -6 0 -11
5 -11 10 0 6 -4 10 -10 10 -5 0 -10 -9 -10 -20 0 -17 -4 -18 -25 -10 -13 5
-27 6 -29 1 -8 -13 4 -20 22 -14 13 5 14 0 9 -32 -5 -29 -2 -44 9 -57 15 -16
14 -17 -20 -11 -33 5 -36 4 -36 -18 0 -14 11 -41 25 -61 55 -81 10 -93 -68
-19 -48 46 -94 69 -125 63 -6 -2 -12 1 -12 6 0 11 -63 82 -73 82 -4 0 -7 -11
-7 -25 0 -27 27 -60 72 -88 16 -10 28 -26 28 -38 0 -18 -5 -21 -32 -17 -18 3
-41 8 -51 13 -16 7 -17 -5 -17 -159 0 -158 1 -166 19 -166 30 0 33 -16 6 -28
-22 -10 -25 -18 -25 -66 0 -49 2 -55 22 -58 13 -2 24 -11 26 -22 3 -12 0 -16
-7 -11 -7 4 -18 1 -26 -5 -12 -10 -15 -54 -15 -248 l0 -235 26 24 27 24 -7
-30 c-4 -16 -16 -36 -26 -44 -17 -12 -20 -25 -20 -102 l0 -88 73 38 c70 38
132 62 247 96 30 9 67 21 83 27 25 9 26 12 11 23 -11 8 -15 19 -11 30 6 14 10
15 22 5 8 -7 15 -19 15 -27 0 -9 7 -13 18 -11 9 2 16 10 15 16 -2 7 2 12 7 12
6 0 10 14 10 30 0 20 5 30 15 30 8 0 15 -5 15 -11 0 -5 4 -7 10 -4 5 3 10 -1
10 -9 0 -8 -5 -18 -12 -22 -7 -4 -8 -3 -4 4 5 8 2 10 -8 6 -9 -3 -13 -10 -10
-15 3 -5 0 -9 -7 -9 -7 0 -10 -3 -6 -6 7 -7 107 24 122 38 6 5 10 14 10 21 0
7 9 12 20 12 21 0 65 72 65 105 0 9 8 16 18 16 16 0 19 -8 18 -48 -1 -37 3
-48 14 -48 34 1 40 14 25 58 -11 30 -13 53 -6 81 11 49 1 67 -22 40 -19 -22
-40 -17 -30 7 7 20 -17 36 -33 23 -9 -7 -22 -5 -44 6 -30 15 -32 15 -51 -7
-14 -16 -22 -19 -26 -10 -2 7 -18 19 -34 27 -29 16 -47 54 -34 75 5 8 15 4 32
-12 23 -21 25 -22 34 -5 6 9 19 17 29 17 16 0 20 7 20 35 0 19 -4 35 -10 35
-5 0 -10 4 -10 10 0 5 6 7 14 4 22 -8 29 42 10 71 -20 30 -13 52 21 65 14 5
25 13 25 17 1 5 3 25 6 45 4 30 2 39 -15 50 -12 7 -21 22 -21 33 0 19 -1 19
-18 -3 -21 -28 -90 -39 -99 -16 -7 18 37 112 56 119 8 3 19 1 25 -5 5 -5 22
-10 36 -10 24 0 60 -29 60 -49 0 -5 7 -17 16 -26 16 -15 19 -14 53 18 33 32
49 37 92 28 4 0 9 -11 13 -23 3 -13 17 -36 32 -51 14 -16 24 -29 23 -30 -2 -1
-14 -8 -27 -15 -13 -7 -32 -10 -43 -7 -14 5 -19 2 -19 -13 0 -11 7 -22 15 -26
8 -3 15 -12 15 -20 0 -7 7 -16 15 -20 18 -6 45 2 45 15 0 5 5 9 10 9 6 0 10
-7 10 -15 0 -10 10 -15 30 -15 23 0 30 -5 30 -19 0 -11 4 -23 10 -26 5 -3 10
3 10 14 0 40 25 21 53 -40 27 -58 27 -62 10 -75 -10 -7 -21 -14 -25 -14 -3 0
-4 -9 -1 -20 4 -13 0 -20 -10 -20 -8 0 -21 -10 -30 -23 -14 -21 -15 -21 -23
-3 -5 14 -1 24 14 37 12 9 22 21 22 27 0 17 -37 42 -63 42 -17 0 -27 5 -27 15
0 8 -8 15 -18 15 -10 0 -27 7 -40 15 -15 11 -32 14 -58 9 -37 -7 -37 -7 -32
25 2 17 1 31 -4 31 -4 0 -8 9 -8 21 0 25 -18 21 -38 -9 -13 -20 -13 -22 5 -22
16 0 22 -9 26 -37 7 -42 7 -44 -22 -46 -11 -1 -23 -7 -25 -14 -7 -16 3 -43 15
-43 18 0 8 -21 -14 -29 -30 -11 -46 -4 -40 20 4 13 0 19 -11 19 -9 0 -16 -8
-16 -20 0 -10 -5 -31 -12 -45 -9 -21 -9 -29 5 -42 13 -13 19 -14 31 -3 9 7 16
18 16 26 0 23 21 27 42 7 11 -10 23 -16 26 -13 4 3 9 -8 12 -25 l6 -30 18 27
c11 16 27 27 40 27 11 0 28 1 36 2 41 6 60 -1 60 -23 0 -21 1 -21 14 -3 17 23
46 14 46 -15 0 -11 -7 -31 -15 -44 -14 -21 -14 -25 -1 -39 8 -8 12 -18 8 -22
-4 -5 -1 -5 6 -1 7 4 10 12 7 17 -4 5 10 9 29 9 29 0 36 -4 36 -20 0 -11 -4
-20 -10 -20 -5 0 -10 -7 -10 -15 0 -8 9 -15 20 -15 10 0 24 -8 29 -18 6 -9 11
-13 11 -8 0 5 7 3 15 -4 27 -22 38 4 41 91 2 45 6 84 8 87 3 2 22 -10 42 -27
21 -19 42 -30 51 -27 9 4 17 -1 20 -14 3 -13 14 -20 29 -20 13 0 24 -4 24 -9
0 -5 7 -12 16 -15 11 -4 15 -2 11 8 -5 12 2 10 26 -4 18 -11 39 -20 47 -20 8
0 21 -9 28 -20 7 -11 19 -20 28 -20 8 0 13 4 10 9 -4 5 2 7 11 5 44 -9 103
-11 103 -3 0 5 16 9 35 9 19 0 34 3 34 8 -4 22 3 29 26 24 22 -4 25 -1 25 26
0 17 5 34 11 38 8 5 10 -1 5 -19 -3 -15 -1 -29 5 -33 7 -4 1 -12 -17 -20 -26
-11 -26 -12 -7 -13 12 -1 25 -5 28 -11 3 -5 16 -10 28 -9 20 1 20 2 -3 9 -14
5 -18 8 -9 9 9 1 23 9 30 18 12 14 12 16 0 8 -11 -6 -13 -4 -7 11 12 32 16 83
7 88 -5 3 -11 -1 -15 -9 -8 -23 -28 -18 -21 5 3 11 2 27 -3 37 -12 20 -52 25
-52 6 0 -8 4 -12 9 -8 14 8 7 -41 -9 -59 -7 -9 -17 -16 -23 -16 -5 0 -2 9 7
19 12 13 14 21 6 26 -5 3 -8 11 -5 16 4 5 -1 9 -10 9 -13 0 -16 -6 -11 -25 4
-14 2 -25 -3 -25 -13 0 -36 41 -33 57 1 6 -4 13 -11 15 -11 2 -11 11 -4 38
l10 35 21 -45 21 -45 3 35 c3 42 38 72 54 48 7 -10 11 -10 15 0 10 25 22 11
18 -20 -3 -18 -3 -27 1 -20 6 13 25 17 23 5 -5 -32 3 -63 16 -63 8 0 15 -7 15
-16 0 -8 4 -12 10 -9 5 3 10 -1 10 -10 0 -24 20 -56 31 -50 6 4 5 13 -1 25 -7
13 -6 21 5 30 12 10 15 9 16 -6 0 -18 1 -18 9 1 8 19 9 19 9 -2 1 -13 5 -23
11 -23 5 0 7 6 4 14 -6 17 11 30 27 20 8 -4 7 -9 -2 -15 -10 -6 -8 -9 9 -9 13
0 22 -6 22 -15 0 -8 5 -15 10 -15 6 0 10 7 10 15 0 8 4 15 9 15 5 0 8 7 7 16
0 9 7 18 17 20 10 1 24 10 31 20 7 10 18 14 25 10 13 -9 43 12 36 24 -3 5 8
18 24 29 16 12 31 31 33 44 2 12 10 22 18 22 8 0 17 11 18 24 2 13 12 33 23
44 10 12 19 29 19 39 0 10 5 18 10 18 6 0 10 6 10 14 0 22 67 12 95 -14 28
-26 42 -77 26 -93 -8 -8 -14 -6 -24 7 -8 11 -19 15 -30 10 -18 -7 -23 -29 -8
-38 5 -3 11 -17 13 -31 4 -18 1 -25 -11 -26 -9 0 -11 -3 -6 -5 6 -2 9 -19 7
-37 -3 -24 2 -38 18 -52 29 -26 51 -25 75 3 19 22 23 23 50 11 17 -8 33 -18
36 -23 4 -5 18 -6 33 -2 22 5 27 2 32 -20 4 -16 0 -39 -10 -60 -22 -46 -21
-47 19 -40 28 6 35 4 35 -9 0 -25 125 -74 133 -52 3 9 9 9 24 0 12 -6 36 -15
56 -18 20 -4 37 -14 40 -23 2 -12 36 -27 101 -46 53 -16 99 -27 101 -24 3 3 6
23 8 46 3 46 17 70 17 29 0 -28 9 -34 26 -17 13 13 29 -3 37 -35 2 -11 5 75 6
192 1 132 -3 214 -9 218 -5 3 -10 24 -10 45 0 21 -4 41 -10 45 -5 3 -7 25 -5
48 2 23 4 45 4 50 1 4 7 7 15 7 20 0 24 835 4 843 -10 4 -10 6 0 6 20 1 14 21
-7 21 -10 0 -29 8 -42 19 l-23 18 22 7 c12 4 31 4 42 1 20 -6 20 -2 20 323 0
255 -3 332 -12 336 -10 5 -10 7 0 12 8 4 12 33 12 92 -1 64 -3 82 -11 70 -5
-10 -11 -35 -13 -55 -2 -20 -9 -39 -16 -41 -9 -3 -10 7 -5 39 10 57 22 89 35
89 18 0 11 29 -10 40 -11 6 -20 17 -20 25 0 7 9 17 20 20 17 5 20 15 20 71 0
67 -3 72 -35 51 -38 -26 -55 -28 -55 -7 0 11 7 20 15 20 8 0 28 13 45 30 27
26 30 36 30 90 0 57 -1 60 -25 60 -14 0 -25 -4 -25 -10 0 -15 -55 -40 -88 -40
-18 0 -38 -10 -52 -25 -30 -32 -54 -34 -44 -2 15 48 12 52 -40 52 -28 0 -51 5
-53 12 -3 7 -14 2 -30 -13 -14 -13 -32 -24 -39 -24 -8 0 -14 -7 -14 -15 0 -8
5 -15 10 -15 6 0 10 5 10 10 0 17 17 11 22 -7 6 -24 -1 -43 -17 -43 -7 0 -18
-6 -24 -14 -18 -21 -60 -7 -77 27 -9 16 -19 25 -23 19 -3 -5 -19 -12 -36 -13
-29 -4 -30 -3 -30 36 0 22 -4 46 -8 53 -10 14 -47 16 -47 2 0 -5 -7 -10 -15
-10 -8 0 -15 5 -15 10 0 6 -25 10 -57 9 -43 0 -62 -6 -74 -19z m771 -57 c0 -7
-11 -13 -25 -13 -18 0 -25 5 -25 18 0 10 3 21 6 25 9 9 44 -16 44 -30z m-783
-21 c10 -7 10 -14 0 -35 -13 -29 -30 -31 -35 -3 -7 36 10 54 35 38z m232 -26
c10 -12 9 -16 -6 -24 -36 -19 -102 5 -78 29 11 12 73 8 84 -5z m-172 -53 c6
-18 -54 -55 -77 -48 -29 9 -25 21 18 43 39 22 53 23 59 5z m-630 -9 c-3 -3
-12 -4 -19 -1 -8 3 -5 6 6 6 11 1 17 -2 13 -5z m63 2 c0 -3 -4 -8 -10 -11 -5
-3 -10 -1 -10 4 0 6 5 11 10 11 6 0 10 -2 10 -4z m187 -42 c-3 -3 -12 -4 -19
-1 -8 3 -5 6 6 6 11 1 17 -2 13 -5z m528 -15 c4 -11 4 -23 1 -26 -8 -8 -37 18
-31 27 3 5 -1 11 -7 13 -7 3 -3 6 9 6 14 1 24 -7 28 -20z m-282 -6 c-7 -2 -19
-2 -25 0 -7 3 -2 5 12 5 14 0 19 -2 13 -5z m691 -9 c10 -27 7 -34 -18 -34 -34
0 -56 -10 -56 -26 0 -7 -8 -19 -18 -26 -19 -14 -37 -53 -47 -104 -8 -43 -37
-68 -70 -60 -14 4 -25 2 -25 -4 0 -16 -30 -12 -54 8 -20 15 -21 19 -9 31 8 7
30 17 48 22 29 8 34 14 33 37 -1 15 2 36 7 46 8 19 8 19 -15 3 -15 -10 -44
-17 -72 -17 -27 0 -48 -4 -48 -9 0 -13 -36 -20 -51 -10 -24 15 3 28 113 54 9
2 27 11 41 19 13 9 26 13 30 10 4 -4 11 6 17 21 8 22 14 25 22 17 17 -17 73
-15 88 3 7 8 21 15 31 15 10 0 21 5 24 10 9 15 22 12 29 -6z m-744 -30 c12
-22 29 -29 54 -25 4 1 14 -6 22 -16 11 -16 9 -21 -14 -43 -22 -21 -24 -25 -9
-28 9 -2 17 -7 17 -12 0 -4 20 -5 45 -2 44 4 45 4 45 -23 0 -16 -7 -37 -16
-47 -13 -14 -14 -21 -5 -32 9 -10 9 -20 0 -40 -15 -32 -29 -33 -58 -2 l-23 25
21 27 c24 30 24 33 11 54 -8 12 -13 11 -33 -8 -23 -22 -24 -22 -41 -3 -11 12
-13 21 -7 25 6 4 7 14 4 23 -5 12 -3 14 8 8 12 -8 12 -6 0 8 -7 9 -17 14 -22
11 -9 -5 -13 9 -10 32 1 7 -7 14 -18 17 -14 3 -18 1 -14 -9 3 -8 -1 -14 -8
-14 -17 0 -24 67 -10 84 17 21 48 16 61 -10z m293 -30 c9 -10 -4 -34 -19 -34
-8 0 -14 -4 -14 -10 0 -14 -27 -13 -32 2 -3 7 -13 5 -32 -7 -28 -18 -29 -18
-42 0 -18 24 -10 31 46 43 55 12 85 14 93 6z m37 -74 c0 -5 -12 -10 -26 -10
-14 0 -23 4 -19 10 3 6 15 10 26 10 10 0 19 -4 19 -10z m436 -103 c10 -28 -36
-107 -62 -107 -7 0 -15 15 -19 33 -4 17 -9 39 -11 48 -3 13 5 19 33 27 52 14
53 14 59 -1z m-2126 -11 c0 -3 -4 -8 -10 -11 -5 -3 -10 -1 -10 4 0 6 5 11 10
11 6 0 10 -2 10 -4z m1773 -3 c-7 -2 -19 -2 -25 0 -7 3 -2 5 12 5 14 0 19 -2
13 -5z m-41 -35 c-7 -7 -12 -8 -12 -2 0 6 3 14 7 17 3 4 9 5 12 2 2 -3 -1 -11
-7 -17z m-62 -42 c0 -39 -11 -56 -34 -56 -12 0 -26 -4 -32 -10 -6 -6 -10 4
-11 30 -2 37 1 40 30 49 46 13 47 13 47 -13z m-150 -37 c0 -11 -24 -39 -34
-39 -11 0 -6 26 6 38 15 15 28 15 28 1z m378 -11 c22 -22 13 -108 -12 -108 -6
0 -17 -19 -24 -42 -31 -99 -79 -178 -108 -178 -6 0 -15 -7 -18 -16 -14 -36
-30 -6 -31 59 -1 75 18 104 60 93 15 -4 29 0 39 9 17 18 11 45 -10 45 -21 0
-17 9 21 47 19 19 35 43 35 53 0 45 23 63 48 38z m192 -2 c0 -16 -28 -42 -36
-33 -7 6 18 47 28 47 5 0 8 -6 8 -14z m-66 -20 c25 -21 27 -27 19 -52 -7 -20
-19 -32 -42 -38 -44 -13 -58 3 -41 43 9 24 10 34 1 45 -9 11 -9 15 1 19 23 9
32 7 62 -17z m-376 -46 c10 -17 10 -21 -2 -26 -16 -6 -56 12 -56 26 0 7 10 12
40 19 3 0 11 -8 18 -19z m-78 -90 c5 8 15 10 26 6 16 -6 16 -8 1 -23 -13 -13
-19 -14 -31 -3 -9 7 -16 18 -15 24 0 6 3 5 6 -3 4 -10 7 -11 13 -1z m-630 -28
c0 -4 -4 -12 -9 -17 -4 -6 -11 -23 -15 -40 l-6 -30 25 28 c14 15 25 24 25 20
0 -5 -4 -13 -10 -19 -5 -5 -10 -38 -11 -74 l-2 -64 -29 59 c-27 57 -38 123
-18 110 6 -3 10 0 10 9 0 13 13 23 33 25 4 1 7 -3 7 -7z m50 -1 c0 -5 -7 -11
-15 -15 -15 -5 -20 5 -8 17 9 10 23 9 23 -2z m-451 -10 c12 -8 12 -14 -4 -38
-9 -15 -27 -36 -39 -45 -11 -9 -18 -20 -14 -23 8 -8 100 32 110 48 11 19 27
-4 33 -48 3 -26 -1 -47 -11 -63 -9 -13 -14 -25 -12 -27 11 -11 50 11 67 39 12
17 34 51 49 75 l29 43 7 -28 c7 -27 9 -28 21 -11 11 16 16 9 38 -60 20 -63 26
-74 32 -55 10 30 15 28 48 -18 32 -46 52 -52 43 -15 -9 35 13 32 25 -4 10 -28
36 -48 47 -37 3 3 -7 21 -22 41 -48 62 -48 148 -1 157 14 3 25 1 25 -5 0 -6 8
-3 18 6 25 23 64 21 92 -3 13 -11 29 -20 37 -20 10 0 11 -5 3 -19 -13 -26 -13
-31 5 -31 8 0 15 -7 15 -15 0 -8 6 -14 13 -13 7 2 11 -5 9 -15 -2 -10 13 -47
32 -83 20 -36 36 -76 36 -89 0 -14 4 -25 9 -25 5 0 20 -24 34 -54 14 -30 31
-57 36 -61 6 -3 11 -20 11 -36 0 -17 4 -28 9 -25 4 3 6 -6 3 -19 -2 -14 0 -25
5 -25 5 0 10 -11 11 -25 1 -14 -3 -25 -9 -25 -7 0 -5 -10 5 -25 18 -28 21 -39
6 -30 -5 3 -10 -1 -10 -9 0 -9 3 -16 8 -16 4 0 12 -11 18 -24 9 -19 8 -28 -4
-40 -14 -13 -14 -19 -2 -43 8 -15 15 -31 17 -34 1 -4 -5 -6 -14 -5 -12 1 -20
-15 -31 -61 -8 -34 -18 -60 -23 -58 -12 8 -18 -10 -8 -25 7 -12 9 -12 9 -1 0
11 3 11 15 1 18 -15 21 -55 3 -44 -8 5 -9 2 -5 -10 4 -10 3 -15 -4 -11 -5 4
-7 15 -4 26 4 11 2 19 -4 19 -14 0 -14 -47 -1 -55 13 -8 13 -45 0 -45 -6 0
-10 -6 -9 -12 4 -32 -1 -41 -15 -29 -11 9 -12 6 -9 -16 3 -20 2 -24 -5 -15 -8
11 -14 9 -32 -10 -15 -16 -24 -19 -27 -10 -7 19 -23 14 -23 -8 0 -22 -15 -27
-23 -7 -3 7 -6 6 -6 -5 -1 -12 -8 -15 -27 -12 -16 3 -23 1 -19 -6 3 -5 13 -10
21 -10 8 0 14 -5 14 -10 0 -7 -6 -7 -19 0 -26 13 -34 13 -28 -3 8 -21 -57 -21
-74 0 -13 16 -12 17 4 4 20 -16 22 -5 5 31 -15 31 -52 35 -42 4 5 -16 2 -18
-20 -14 -15 3 -29 2 -31 -2 -3 -5 -14 -6 -25 -3 -15 4 -18 1 -16 -13 12 -65
17 -104 13 -104 -9 0 -67 32 -67 37 0 3 11 2 25 -1 30 -8 33 9 6 24 -27 14
-41 13 -41 -5 0 -8 -4 -15 -10 -15 -5 0 -10 5 -10 12 0 21 -14 -3 -26 -43 -7
-21 -8 -36 -3 -33 5 3 9 0 9 -5 0 -6 -6 -11 -14 -11 -8 0 -18 -9 -21 -20 -6
-18 -8 -18 -22 -5 -8 9 -12 22 -9 30 3 9 0 12 -10 8 -7 -3 -14 -14 -14 -25 0
-10 -4 -16 -10 -13 -5 3 -10 0 -10 -7 -1 -7 -7 1 -15 17 -9 20 -14 24 -14 13
-1 -10 -8 -18 -16 -18 -8 0 -15 -5 -15 -11 0 -5 -4 -7 -10 -4 -5 3 -10 15 -10
26 0 11 -4 17 -10 14 -6 -3 -7 1 -4 9 3 9 1 16 -5 16 -6 0 -11 10 -11 23 0 16
-3 18 -9 9 -13 -21 -23 15 -11 39 9 16 7 19 -10 19 -11 0 -20 4 -20 8 0 14
-48 32 -65 26 -10 -4 -15 -2 -13 7 2 7 -5 15 -15 17 -19 4 -77 -19 -77 -30 0
-5 -10 -8 -22 -9 -22 -1 -22 -1 2 -9 14 -4 19 -8 11 -9 -8 -1 -19 -8 -25 -17
-9 -11 -20 -13 -40 -8 -19 5 -24 10 -17 17 16 16 13 27 -5 20 -14 -5 -15 -3
-5 15 7 13 8 22 2 22 -5 0 -13 -9 -16 -20 -7 -23 -25 -27 -25 -6 0 8 -7 13
-16 12 -10 0 -21 10 -27 27 -8 24 -6 31 12 43 27 19 26 23 -3 56 -14 14 -22
28 -19 32 3 3 1 12 -5 19 -8 9 -9 24 -2 48 8 28 7 39 -8 59 -11 14 -25 42 -32
63 -8 20 -18 37 -23 37 -5 0 -7 9 -4 20 3 11 2 22 -2 25 -4 2 -7 21 -6 42 1
21 -1 43 -4 48 -3 6 -6 15 -6 20 -1 6 -5 26 -9 46 -10 46 6 79 38 79 13 0 29
-7 36 -15 7 -8 21 -15 31 -15 11 0 19 -4 19 -10 0 -5 15 -10 34 -10 26 0 33 4
32 17 -1 11 10 19 29 24 64 17 105 34 105 46 0 18 25 16 66 -3 39 -19 50 -15
31 10 -20 27 -83 37 -160 25 -82 -13 -103 -8 -87 21 10 19 20 21 121 19 69 -1
114 -5 120 -13 5 -6 21 -26 34 -45 19 -27 25 -30 24 -15 -1 25 -24 91 -30 84
-3 -3 -17 5 -33 17 -45 36 -98 45 -203 38 -51 -4 -96 -11 -99 -16 -9 -16 -20
-10 -32 16 -15 33 -15 68 0 83 9 9 7 12 -10 12 -25 0 -26 1 -11 34 10 21 17
24 53 21 28 -3 35 -2 21 4 -11 5 -24 6 -29 3 -5 -3 -6 0 -2 6 4 7 21 12 38 12
23 0 29 -4 24 -15 -7 -20 1 -19 31 5 14 11 40 20 57 20 79 0 102 30 28 35 -53
4 -85 24 -101 63 -11 26 -10 36 10 73 19 39 23 42 30 24 5 -13 8 -15 8 -5 1
13 2 13 11 0 8 -12 10 -9 10 12 0 41 33 58 110 58 36 0 71 -4 79 -9z m496 -31
c3 -5 1 -10 -4 -10 -6 0 -11 5 -11 10 0 6 2 10 4 10 3 0 8 -4 11 -10z m835
-75 c0 -16 -27 -32 -37 -21 -7 7 16 36 28 36 5 0 9 -7 9 -15z m388 -23 c4 -25
-25 -31 -46 -10 -9 9 -12 9 -12 -1 0 -7 -4 -9 -10 -6 -5 3 -10 15 -10 25 0 16
7 18 38 17 30 -2 38 -7 40 -25z m-144 2 c13 -5 12 -10 -10 -26 -29 -23 -39
-19 -29 11 7 22 14 25 39 15z m-144 -25 c0 -11 -4 -17 -10 -14 -5 3 -10 13
-10 21 0 8 5 14 10 14 6 0 10 -9 10 -21z m-1775 -90 c6 -19 0 -38 -9 -28 -10
12 -16 49 -7 49 5 0 13 -9 16 -21z m1601 -74 c11 -44 -37 -78 -51 -35 -8 24
11 60 30 60 8 0 17 -11 21 -25z m478 -21 c8 -22 8 -24 -8 -24 -8 0 -17 -12
-20 -26 -5 -17 -12 -24 -24 -22 -29 6 -26 39 5 64 34 28 39 29 47 8z m-107
-16 c10 -8 10 -13 0 -23 -7 -7 -15 -11 -18 -9 -11 6 -29 -22 -31 -49 -2 -21
-5 -24 -21 -16 -19 11 -38 49 -30 62 2 4 18 7 34 7 19 0 28 4 24 10 -4 6 -4
18 -1 26 6 15 16 13 43 -8z m-497 -39 c14 -26 7 -34 -31 -34 -34 0 -34 -1 -13
30 20 30 30 31 44 4z m368 -11 c28 -28 8 -63 -38 -70 -37 -5 -55 -25 -40 -43
12 -15 11 -16 -37 -31 -7 -2 -13 -8 -13 -13 0 -6 7 -8 15 -5 17 7 21 -11 4
-21 -6 -4 -8 -13 -5 -21 6 -16 5 -16 -89 -19 -81 -3 -112 8 -45 15 38 4 47 10
59 35 8 17 13 49 12 73 -2 35 2 47 28 73 25 24 37 29 59 25 15 -3 34 -2 42 4
20 13 34 12 48 -2z m-2471 -58 c1 -11 -4 -20 -13 -20 -14 0 -19 21 -7 33 11
12 19 7 20 -13z m2088 -20 c4 -6 -4 -22 -17 -35 -36 -39 -48 -31 -28 19 10 26
34 34 45 16z m-1945 -7 c-1 -18 -40 -53 -58 -53 -29 0 -32 21 -8 42 21 17 66
25 66 11z m130 -18 c0 -8 4 -15 10 -15 5 0 9 -15 8 -33 -1 -19 2 -39 6 -45 4
-7 -1 -10 -14 -9 -11 1 -20 4 -20 8 0 4 -7 14 -15 22 -11 11 -12 22 -4 51 10
36 29 50 29 21z m2210 -6 c0 -5 -13 -9 -30 -9 -28 0 -38 9 -25 22 8 8 55 -3
55 -13z m-233 -14 c0 -8 -4 -15 -9 -15 -10 0 -11 14 -1 23 9 10 10 9 10 -8z
m255 -21 c-4 -24 -6 -24 -21 -9 -14 14 -14 17 -1 25 23 15 28 12 22 -16z m113
-16 c-19 -11 -30 -5 -21 11 4 6 14 7 22 4 15 -5 14 -7 -1 -15z m-654 -26 c9
-30 8 -58 -5 -134 -10 -58 -14 -116 -10 -149 5 -46 3 -58 -16 -81 -12 -16 -26
-28 -31 -28 -5 0 -9 34 -9 75 0 41 4 75 9 75 13 0 24 38 23 77 -1 18 3 35 9
38 11 7 2 73 -13 92 -10 13 10 73 24 73 4 0 12 -17 19 -38z m199 -7 c0 -8 1
-18 3 -22 1 -3 -8 -8 -21 -9 -14 -3 -25 2 -29 12 -3 8 -12 13 -19 10 -8 -3
-14 -1 -14 4 0 9 23 17 58 19 13 1 22 -5 22 -14z m-2090 -30 c10 -12 10 -15
-4 -15 -9 0 -16 7 -16 15 0 8 2 15 4 15 2 0 9 -7 16 -15z m-410 -35 c-6 -11
-13 -20 -15 -20 -2 0 -9 9 -15 20 -9 18 -8 20 15 20 23 0 24 -2 15 -20z m528
-6 c2 -17 -5 -24 -29 -33 -45 -16 -56 -14 -62 10 -10 38 2 50 47 47 33 -2 42
-7 44 -24z m141 -66 c-11 -41 -11 -41 1 -33 6 3 10 1 10 -5 0 -22 -24 -3 -32
25 -8 32 -3 45 17 45 11 0 12 -7 4 -32z m-256 5 c-8 -21 -28 -43 -39 -43 -4 0
1 9 11 20 10 11 15 20 11 20 -4 0 -4 5 -1 10 11 17 25 11 18 -7z m2252 -93 c3
-5 1 -10 -4 -10 -6 0 -11 5 -11 10 0 6 2 10 4 10 3 0 8 -4 11 -10z m-2328 -52
c-3 -8 -6 -5 -6 6 -1 11 2 17 5 13 3 -3 4 -12 1 -19z m202 -27 c19 -12 -4 -51
-30 -51 -22 0 -61 39 -52 52 6 11 65 10 82 -1z m2011 -61 c-1 -12 -4 -11 -15
4 -8 10 -12 23 -8 29 7 11 23 -12 23 -33z m-1792 -34 c3 -11 0 -16 -7 -12 -15
10 -14 -37 1 -52 9 -9 9 -12 0 -12 -7 0 -12 -5 -12 -11 0 -12 -25 -39 -37 -39
-4 0 -21 16 -36 36 -27 33 -28 37 -13 53 9 10 16 22 16 27 0 36 82 45 88 10z
m-576 -109 c-9 -18 -21 9 -15 33 l7 25 6 -25 c4 -14 5 -29 2 -33z m-202 25
c18 -14 21 -25 17 -44 -7 -27 -31 -43 -49 -32 -5 3 -8 15 -5 25 3 11 2 19 -3
19 -4 0 -5 11 -2 25 5 30 12 31 42 7z m600 -31 c0 -25 -20 -38 -31 -20 -15 23
-10 39 11 39 13 0 20 -7 20 -19z m2460 -1 c0 -5 -4 -10 -10 -10 -5 0 -10 5
-10 10 0 6 5 10 10 10 6 0 10 -4 10 -10z m-297 -12 c2 -7 1 -23 -4 -35 -6 -16
-13 -20 -29 -16 -15 4 -18 9 -11 16 6 6 11 19 11 29 0 20 25 25 33 6z m140
-25 c15 -9 6 -24 -12 -18 -11 3 -22 1 -26 -5 -9 -14 -21 -13 -40 6 -13 14 -14
19 -3 25 12 8 62 3 81 -8z m-2073 -35 c0 -9 5 -18 10 -20 6 -2 13 -17 15 -33
2 -17 4 -31 4 -32 1 -2 2 -6 3 -10 0 -5 8 -13 17 -20 15 -10 14 -12 -2 -18
-11 -5 -25 -1 -38 11 -16 15 -19 25 -14 56 4 21 3 44 -2 51 -5 7 -10 23 -11
37 -1 19 1 21 8 10 5 -8 10 -22 10 -32z m1728 -14 c35 -7 42 -21 15 -31 -10
-4 -24 -13 -31 -20 -7 -7 -22 -13 -32 -13 -28 0 -101 40 -94 52 3 5 11 7 17 5
7 -2 18 3 26 11 9 8 24 11 40 8 14 -3 41 -9 59 -12z m-2314 -20 c3 -9 15 -14
28 -12 16 2 26 -5 36 -25 13 -26 12 -31 -7 -51 -12 -12 -21 -27 -21 -32 0 -14
73 -11 88 4 35 32 58 4 61 -71 1 -27 8 -59 16 -70 8 -12 15 -25 15 -30 0 -16
-55 4 -72 26 -15 20 -17 20 -23 4 -4 -9 -13 -17 -21 -17 -8 0 -14 -4 -14 -8 0
-5 -11 -14 -25 -20 -19 -9 -25 -9 -26 1 0 6 -2 22 -5 35 -2 13 4 30 16 42 15
15 25 17 50 10 26 -7 31 -6 26 5 -3 8 -1 15 4 15 6 0 10 9 10 20 0 23 -8 24
-47 9 -61 -25 -84 -12 -78 43 2 18 -5 34 -21 49 l-24 23 -16 -22 c-20 -29 -79
-31 -93 -3 -12 22 9 47 32 38 7 -3 21 1 31 9 11 7 22 11 27 9 4 -3 10 4 14 15
8 24 30 26 39 4z m2396 6 c0 -5 -4 -10 -9 -10 -6 0 -13 5 -16 10 -3 6 1 10 9
10 9 0 16 -4 16 -10z m380 -44 c0 -2 3 -11 6 -20 4 -11 0 -16 -14 -16 -21 0
-37 -24 -33 -50 1 -11 -1 -10 -9 3 -9 14 -7 25 10 52 18 29 40 46 40 31z
m-990 -36 c0 -5 -4 -10 -10 -10 -5 0 -10 5 -10 10 0 6 5 10 10 10 6 0 10 -4
10 -10z m607 4 c-3 -3 -12 -4 -19 -1 -8 3 -5 6 6 6 11 1 17 -2 13 -5z m93 -8
c0 -8 -4 -17 -9 -21 -12 -7 -24 12 -16 25 9 15 25 12 25 -4z m-2634 -21 c4 -8
14 -15 24 -15 10 0 23 -6 29 -14 9 -11 18 -12 42 -3 32 13 49 1 49 -35 0 -24
-55 -25 -64 -2 -5 13 -9 14 -21 4 -18 -15 -35 -5 -35 22 0 15 -4 18 -17 13
-39 -17 -58 -11 -61 18 -3 23 0 27 23 27 14 0 28 -7 31 -15z m1719 5 c3 -5 -1
-10 -9 -10 -9 0 -16 5 -16 10 0 6 4 10 9 10 6 0 13 -4 16 -10z m153 -90 l0
-25 -8 25 c-4 14 -8 34 -8 45 l-1 20 9 -20 c5 -11 8 -31 8 -45z m-294 19 c-3
-5 -10 -7 -15 -3 -5 3 -7 10 -3 15 3 5 10 7 15 3 5 -3 7 -10 3 -15z m-1655 -6
c10 -17 10 -17 11 0 0 9 4 17 9 17 14 0 22 -29 10 -36 -6 -3 -8 -13 -4 -22 3
-8 -3 -23 -15 -34 -16 -15 -20 -16 -20 -3 0 8 5 15 10 15 6 0 10 7 10 16 0 10
-6 14 -14 11 -10 -4 -15 4 -18 24 -5 32 6 38 21 12z m2890 -55 c5 -13 7 -30 5
-38 -3 -8 3 0 11 18 17 36 42 42 53 11 4 -11 19 -26 32 -32 16 -8 27 -25 31
-47 9 -42 -1 -56 -30 -40 -19 10 -26 7 -53 -19 -24 -23 -35 -28 -45 -20 -16
14 -17 36 0 42 10 4 10 7 0 18 -10 9 -13 10 -13 1 0 -19 -28 -14 -40 7 -21 40
-4 121 25 121 9 0 19 -10 24 -22z m-2783 1 c3 -6 14 -9 24 -6 10 2 24 1 31 -3
10 -7 10 -11 0 -24 -12 -14 -15 -14 -37 1 -15 9 -24 11 -24 4 0 -14 -27 -14
-35 -1 -7 11 12 40 26 40 4 0 11 -5 15 -11z m2604 -4 c0 -8 -4 -15 -10 -15 -5
0 -10 7 -10 15 0 8 5 15 10 15 6 0 10 -7 10 -15z m-2763 -17 c-3 -8 -6 -5 -6
6 -1 11 2 17 5 13 3 -3 4 -12 1 -19z m2597 -13 c3 -9 0 -15 -9 -15 -8 0 -21
-16 -29 -35 -11 -25 -21 -35 -36 -35 -12 0 -30 -10 -39 -22 -12 -15 -20 -18
-25 -10 -4 7 -2 12 5 12 6 0 1 8 -11 18 -20 16 -21 21 -11 41 7 13 19 20 26
17 8 -3 15 0 17 6 4 10 65 34 94 37 7 1 14 -6 18 -14z m-697 -27 c-3 -7 -5 -2
-5 12 0 14 2 19 5 13 2 -7 2 -19 0 -25z m-1127 -39 c0 -52 -13 -63 -36 -31
-26 34 -15 93 17 85 15 -4 19 -14 19 -54z m-706 19 c12 -23 16 -26 13 -10 -4
17 -1 22 14 22 22 0 25 -19 7 -42 -15 -17 -53 -33 -43 -18 3 6 0 10 -8 10 -25
0 -40 26 -27 49 15 29 25 26 44 -11z m2334 20 c6 -7 8 -34 5 -59 -5 -42 -7
-45 -30 -41 -16 3 -29 -2 -38 -14 -11 -14 -17 -16 -23 -7 -7 11 -8 26 -3 86 1
24 22 22 28 -3 7 -25 29 -20 25 5 -7 38 15 58 36 33z m-2168 -18 c0 -5 -4 -10
-10 -10 -5 0 -10 5 -10 10 0 6 5 10 10 10 6 0 10 -4 10 -10z m1492 -42 c-9 -9
-12 -7 -12 12 0 19 3 21 12 12 9 -9 9 -15 0 -24z m1136 -1 c7 -15 17 -27 23
-27 17 0 9 -19 -11 -25 -24 -8 -26 -37 -4 -70 19 -29 15 -69 -8 -73 -14 -3
-16 3 -11 32 3 21 1 36 -4 36 -13 0 -35 49 -28 60 3 5 0 18 -6 28 -7 11 -9 30
-5 46 9 35 36 31 54 -7z m-2702 -2 c11 -27 -1 -39 -19 -21 -9 10 -17 22 -17
27 0 15 30 10 36 -6z m172 -26 c-3 -8 -7 -3 -11 10 -4 17 -3 21 5 13 5 -5 8
-16 6 -23z m1462 15 c0 -8 -5 -12 -10 -9 -6 4 -8 11 -5 16 9 14 15 11 15 -7z
m-356 -8 c-10 -8 -21 -12 -24 -10 -5 6 21 24 34 24 6 0 1 -6 -10 -14z m164
-17 c-3 -8 -7 -3 -11 10 -4 17 -3 21 5 13 5 -5 8 -16 6 -23z m1092 21 c0 -5
-2 -10 -4 -10 -3 0 -8 5 -11 10 -3 6 -1 10 4 10 6 0 11 -4 11 -10z m-2470 -14
c0 -3 -4 -8 -10 -11 -5 -3 -10 -1 -10 4 0 6 5 11 10 11 6 0 10 -2 10 -4z
m1235 -6 c-3 -5 -11 -10 -16 -10 -6 0 -7 5 -4 10 3 6 11 10 16 10 6 0 7 -4 4
-10z m76 -13 c-10 -9 -11 -8 -5 6 3 10 9 15 12 12 3 -3 0 -11 -7 -18z m1193
-9 c3 -13 6 -31 6 -42 0 -32 -25 -1 -28 33 -3 36 13 42 22 9z m-1229 2 c-3 -5
-13 -10 -21 -10 -8 0 -12 5 -9 10 3 6 13 10 21 10 8 0 12 -4 9 -10z m-457 -23
c8 -6 12 -26 10 -50 -2 -31 -8 -42 -26 -48 -19 -7 -24 -4 -33 17 -6 18 -15 25
-27 22 -13 -4 -18 3 -20 29 -1 19 1 39 4 44 7 11 73 1 92 -14z m482 3 c0 -5
-5 -10 -11 -10 -5 0 -7 5 -4 10 3 6 8 10 11 10 2 0 4 -4 4 -10z m1418 -34 c3
-12 -1 -17 -10 -14 -7 3 -15 13 -16 22 -3 12 1 17 10 14 7 -3 15 -13 16 -22z
m-2568 -5 c0 -21 23 -45 33 -34 4 3 7 1 7 -5 0 -7 7 -12 15 -12 8 0 15 -7 15
-15 0 -19 -2 -19 -30 5 -24 21 -69 27 -71 10 -1 -5 -2 -14 -3 -19 0 -6 -7 -16
-13 -22 -7 -7 -13 -19 -13 -26 0 -25 -16 -12 -29 23 -14 38 -6 53 27 54 6 0
12 11 12 23 0 28 7 37 32 37 11 0 18 -7 18 -19z m1170 9 c0 -5 -4 -10 -10 -10
-5 0 -10 5 -10 10 0 6 5 10 10 10 6 0 10 -4 10 -10z m-1470 -35 c0 -8 -4 -15
-9 -15 -13 0 -22 16 -14 24 11 11 23 6 23 -9z m2708 -8 c11 -8 11 -12 0 -18
-21 -14 -45 -10 -52 7 -13 33 16 39 52 11z m-1048 -15 c0 -5 -7 -9 -15 -9 -8
0 -12 4 -9 9 3 4 9 8 15 8 5 0 9 -4 9 -8z m1292 -27 c12 -48 -8 -52 -32 -5
l-21 42 22 -4 c15 -2 25 -13 31 -33z m-2432 4 c0 -24 -23 -21 -28 4 -2 10 3
17 12 17 10 0 16 -9 16 -21z m984 -30 c-3 -5 0 -9 6 -9 6 0 8 -5 4 -12 -6 -9
-9 -9 -12 0 -2 7 -12 12 -23 12 -12 0 -16 5 -13 14 3 8 13 12 25 9 10 -3 16
-9 13 -14z m-1107 -12 c-9 -23 9 -43 26 -29 20 17 27 5 27 -44 0 -50 -9 -59
-44 -43 -28 13 -33 28 -14 47 9 9 9 18 0 37 -15 32 -15 45 -1 45 6 0 9 -6 6
-13z m-97 -31 c0 -15 -18 -31 -26 -23 -7 7 7 37 17 37 5 0 9 -6 9 -14z m-90
-66 c0 -33 -19 -40 -40 -15 -16 20 -5 45 20 45 16 0 20 -7 20 -30z m80 -35 c0
-14 -4 -25 -9 -25 -12 0 -23 29 -15 41 10 18 24 9 24 -16z m-307 -114 c16 -10
24 -21 19 -25 -6 -3 -23 5 -39 19 -33 29 -20 33 20 6z"/>
<path d="M2830 2870 c0 -5 4 -10 9 -10 6 0 13 5 16 10 3 6 -1 10 -9 10 -9 0
-16 -4 -16 -10z"/>
<path d="M1261 2279 c-1 -9 7 -25 17 -36 9 -10 14 -14 10 -8 -4 6 -12 22 -17
36 -6 15 -10 18 -10 8z"/>
<path d="M2015 2230 c-3 -5 -1 -10 4 -10 6 0 11 5 11 10 0 6 -2 10 -4 10 -3 0
-8 -4 -11 -10z"/>
<path d="M1330 2206 c0 -10 28 -13 41 -5 10 6 7 9 -13 9 -16 0 -28 -2 -28 -4z"/>
<path d="M1852 1997 c-51 -7 -66 -14 -80 -34 -27 -43 -24 -52 17 -46 49 7 118
33 132 49 6 8 19 14 28 13 12 0 11 -2 -4 -9 -23 -10 -14 -13 33 -10 21 1 39
-5 50 -17 41 -43 82 -51 82 -15 -2 63 -107 92 -258 69z"/>
<path d="M1798 1883 c-43 -17 -54 -53 -16 -53 12 0 18 3 15 7 -8 7 23 32 41
33 6 0 12 -7 12 -15 0 -11 12 -15 43 -16 23 0 53 -2 67 -4 44 -6 110 6 110 21
0 42 -190 61 -272 27z"/>
<path d="M1502 1521 c-13 -8 8 -20 66 -36 35 -10 26 9 -13 28 -41 20 -36 19
-53 8z"/>
<path d="M1650 1519 c-11 -8 -7 -9 18 -5 24 4 34 2 38 -9 4 -8 14 -15 23 -14
10 0 11 2 4 6 -7 2 -13 11 -13 19 0 17 -48 19 -70 3z"/>
<path d="M1430 1500 c6 -11 17 -20 25 -20 11 0 10 5 -5 20 -11 11 -22 20 -25
20 -3 0 -1 -9 5 -20z"/>
<path d="M2260 1480 c0 -16 5 -30 10 -30 6 0 10 14 10 30 0 17 -4 30 -10 30
-5 0 -10 -13 -10 -30z"/>
<path d="M1494 1444 c-10 -24 -20 -34 -30 -30 -7 3 -14 1 -14 -4 0 -5 -6 -7
-14 -4 -29 11 -25 -14 4 -26 22 -9 34 -10 43 -1 8 6 17 8 20 4 4 -3 7 1 7 10
0 9 9 21 20 27 24 13 25 26 6 46 -21 20 -25 18 -42 -22z"/>
<path d="M1622 1414 c3 -17 21 -21 26 -6 1 5 -4 12 -13 16 -11 4 -15 1 -13
-10z"/>
<path d="M1713 1417 c4 -14 26 -16 30 -3 1 5 -6 10 -16 12 -10 1 -16 -3 -14
-9z"/>
<path d="M1563 1412 c-7 -4 -9 -13 -4 -21 10 -16 31 -6 31 15 0 16 -9 18 -27
6z"/>
<path d="M1750 1396 c0 -2 7 -7 16 -10 8 -3 12 -2 9 4 -6 10 -25 14 -25 6z"/>
<path d="M1817 1383 c4 -10 18 -26 30 -37 13 -10 22 -23 20 -29 -4 -13 53 -45
71 -39 6 2 12 17 12 34 0 19 -4 27 -11 22 -6 -3 -22 6 -35 22 -20 24 -25 27
-34 14 -8 -13 -10 -13 -10 1 0 9 -7 20 -16 23 -26 10 -34 7 -27 -11z"/>
<path d="M1367 1360 c-9 -13 -20 -18 -30 -14 -12 4 -18 -2 -23 -20 -3 -14 -10
-23 -15 -20 -5 3 -9 -3 -9 -12 0 -10 3 -14 6 -11 4 3 16 1 28 -5 11 -6 32 -13
46 -14 14 -2 44 -6 66 -9 32 -4 43 -2 47 10 4 10 20 15 49 15 62 0 87 19 28
21 -59 3 -59 3 -124 -5 -52 -7 -56 -6 -56 13 0 13 10 26 25 33 30 13 28 30 -3
34 -13 2 -27 -4 -35 -16z"/>
<path d="M1670 1300 c-23 -4 3 -7 73 -7 59 -1 107 3 107 8 0 10 -127 10 -180
-1z"/>
<path d="M1537 1168 c-7 -5 -1 -8 16 -8 15 0 27 -4 27 -10 0 -16 46 -12 60 6
8 8 9 14 4 13 -5 -1 -11 0 -14 1 -15 6 -83 5 -93 -2z"/>
<path d="M396 1085 c-9 -26 -7 -32 5 -12 6 10 9 21 6 23 -2 3 -7 -2 -11 -11z"/>
<path d="M2560 835 c0 -8 7 -15 15 -15 8 0 15 7 15 15 0 8 -7 15 -15 15 -8 0
-15 -7 -15 -15z"/>
<path d="M720 3170 c0 -5 9 -10 20 -10 11 0 20 5 20 10 0 6 -9 10 -20 10 -11
0 -20 -4 -20 -10z"/>
<path d="M800 3170 c-8 -5 -11 -12 -8 -16 10 -9 38 3 38 16 0 12 -10 13 -30 0z"/>
<path d="M2714 3169 c-8 -14 5 -26 39 -34 32 -8 35 4 7 28 -23 20 -36 21 -46
6z"/>
<path d="M1446 3155 c-3 -8 -1 -15 4 -15 6 0 10 7 10 15 0 8 -2 15 -4 15 -2 0
-6 -7 -10 -15z"/>
<path d="M920 3146 c0 -21 43 -96 55 -96 24 0 20 61 -4 67 -11 3 -22 11 -25
19 -5 12 -26 20 -26 10z"/>
<path d="M505 3130 c-4 -6 -10 -24 -15 -40 -16 -57 32 -58 82 -2 l26 30 -24
11 c-31 14 -61 14 -69 1z"/>
<path d="M293 2961 c-25 -5 -37 -15 -53 -46 -24 -47 -25 -55 -5 -55 31 0 3
-38 -40 -55 -18 -7 -17 -8 10 -20 17 -7 31 -9 33 -4 2 5 21 6 43 3 26 -4 39
-3 39 5 0 14 45 14 72 0 11 -6 22 -9 24 -6 7 7 -29 72 -49 86 -15 10 -18 22
-14 46 5 29 -7 57 -22 54 -4 -1 -21 -4 -38 -8z"/>
<path d="M820 2860 c0 -5 7 -10 16 -10 8 0 12 5 9 10 -3 6 -10 10 -16 10 -5 0
-9 -4 -9 -10z"/>
<path d="M180 2844 c0 -8 5 -12 10 -9 6 4 8 11 5 16 -9 14 -15 11 -15 -7z"/>
<path d="M750 2820 c0 -5 5 -10 10 -10 6 0 10 5 10 10 0 6 -4 10 -10 10 -5 0
-10 -4 -10 -10z"/>
<path d="M439 2779 c-19 -14 -20 -17 -5 -32 9 -8 16 -20 16 -26 0 -6 7 -11 15
-11 8 0 15 -4 15 -10 0 -5 7 -10 15 -10 17 0 39 -36 30 -50 -3 -6 2 -23 11
-39 15 -25 15 -32 5 -45 -8 -9 -17 -16 -22 -16 -15 0 -78 47 -72 54 4 3 -1 6
-10 6 -25 0 -22 -56 3 -77 11 -10 20 -25 20 -35 0 -25 8 -23 40 12 35 37 67
39 80 5 5 -14 16 -25 23 -25 8 0 19 -11 25 -25 15 -32 15 -35 -1 -35 -7 0 -28
-13 -47 -29 -32 -27 -34 -31 -19 -46 23 -24 64 -5 78 36 6 18 18 40 26 49 9 9
22 43 30 74 8 32 22 64 30 73 24 24 17 33 -24 33 -44 0 -54 17 -36 58 9 20 15
22 50 18 55 -8 74 6 40 28 -15 10 -29 15 -32 12 -4 -3 -12 2 -19 13 -12 17
-77 36 -113 34 -8 -1 -26 4 -40 9 -39 16 -88 15 -112 -3z m261 -223 c0 -3 -4
-8 -10 -11 -5 -3 -10 -1 -10 4 0 6 5 11 10 11 6 0 10 -2 10 -4z m-85 -16 c3
-5 -1 -10 -9 -10 -9 0 -16 5 -16 10 0 6 4 10 9 10 6 0 13 -4 16 -10z"/>
<path d="M76 2663 c-11 -11 -6 -23 9 -23 8 0 15 4 15 9 0 13 -16 22 -24 14z"/>
<path d="M0 2520 c0 -13 7 -20 19 -20 24 0 30 -8 33 -49 1 -17 6 -31 10 -31 4
0 8 4 8 9 0 5 7 8 16 7 31 -2 25 21 -16 62 -43 46 -70 54 -70 22z"/>
<path d="M380 2420 c0 -5 7 -7 15 -4 8 4 15 8 15 10 0 2 -7 4 -15 4 -8 0 -15
-4 -15 -10z"/>
<path d="M12 2398 c-15 -15 -15 -61 0 -76 9 -9 9 -12 0 -12 -7 0 -12 -13 -12
-30 0 -21 5 -30 16 -30 8 0 12 -5 9 -11 -4 -6 2 -17 14 -25 12 -8 21 -26 21
-39 0 -13 7 -31 16 -40 9 -8 19 -34 22 -58 3 -23 11 -48 19 -55 17 -17 16 -27
-2 -42 -17 -14 -21 -90 -5 -90 5 0 29 18 52 39 23 22 57 48 76 58 30 16 33 22
29 50 -8 48 2 71 31 75 38 4 41 28 3 28 -17 0 -31 -4 -31 -10 0 -16 -62 -6
-74 12 -7 12 -6 24 4 42 12 24 11 28 -8 47 -14 12 -22 32 -22 52 0 18 -4 39
-10 47 -8 12 -10 12 -16 -3 -3 -9 -4 -27 -1 -38 4 -15 -2 -28 -21 -45 -33 -29
-42 -30 -42 -4 0 10 -7 23 -15 28 -13 7 -13 14 -4 41 10 27 9 39 -4 67 -18 37
-26 41 -45 22z"/>
<path d="M550 2299 c0 -24 23 -21 28 4 2 10 -3 17 -12 17 -10 0 -16 -9 -16
-21z"/>
<path d="M312 2250 c-16 -25 -15 -30 3 -30 12 0 35 28 35 44 0 14 -26 4 -38
-14z"/>
<path d="M498 2113 c-21 -5 -24 -23 -4 -23 8 0 16 7 20 15 3 8 4 14 3 14 -1
-1 -10 -3 -19 -6z"/>
<path d="M472 2060 c-14 -23 -8 -40 14 -40 9 0 14 11 14 30 0 35 -10 38 -28
10z"/>
<path d="M33 2018 c-18 -24 -22 -47 -9 -57 20 -16 46 -2 46 24 0 30 -23 50
-37 33z"/>
<path d="M291 1698 c-7 -17 -5 -26 7 -36 14 -11 18 -10 26 7 10 22 2 51 -14
51 -6 0 -15 -10 -19 -22z"/>
<path d="M305 1630 c-3 -5 -1 -10 4 -10 6 0 11 5 11 10 0 6 -2 10 -4 10 -3 0
-8 -4 -11 -10z"/>
<path d="M776 1098 c-18 -10 -22 -38 -6 -38 6 0 13 7 16 15 4 8 12 15 20 15 8
0 14 4 14 8 0 11 -24 11 -44 0z"/>
<path d="M672 946 c2 -11 12 -22 22 -24 14 -3 17 0 13 11 -3 9 -1 18 6 20 7 2
-1 6 -16 9 -24 5 -28 3 -25 -16z"/>
<path d="M855 680 c-13 -21 6 -70 26 -70 11 0 24 -10 30 -23 8 -19 16 -22 41
-19 l31 5 -24 13 c-13 7 -20 13 -15 14 9 0 -13 37 -42 71 -18 21 -37 25 -47 9z"/>
<path d="M2355 663 c10 -14 21 -38 25 -52 8 -25 8 -25 9 7 1 41 -14 72 -36 72
-13 0 -13 -3 2 -27z"/>
<path d="M1917 600 c3 -11 9 -20 15 -20 5 0 4 9 -2 20 -6 11 -12 20 -14 20 -2
0 -2 -9 1 -20z"/>
<path d="M1940 610 c0 -5 5 -10 11 -10 5 0 7 5 4 10 -3 6 -8 10 -11 10 -2 0
-4 -4 -4 -10z"/>
<path d="M2506 612 c-3 -6 -1 -14 5 -17 15 -10 25 3 12 16 -7 7 -13 7 -17 1z"/>
<path d="M827 583 c-4 -3 -7 -11 -7 -17 0 -6 5 -5 12 2 6 6 9 14 7 17 -3 3 -9
2 -12 -2z"/>
</g>
</svg>
